# xmcd
#
# Track frame offsets:
#	150
#	16096
#	37879
#	52556
#	68557
#	86543
#	95429
#	118170
#	129410
#	146224
#	161320
#	175056
#	194903
#	213677
#	229725
#	246806
#	254118
#	270952
#	294416
#
# Disc length: 4157 seconds
#
# Revision: 0
# Processed by: cddbd v1.5PL3 Copyright (c) Steve Scherf et al.
# Submitted via: dBpowerAMP V4.0
#
DISCID=09103b13
DTITLE=goran bregovich - best of soundtracks
DYEAR=1997
DGENRE=Soundtrack
TTITLE0=b
TTITLE1=bb
TTITLE2=b3
TTITLE3=b4
TTITLE4=b5
TTITLE5=b6
TTITLE6=b7
TTITLE7=b8
TTITLE8=b9
TTITLE9=b0
TTITLE10=b11
TTITLE11=b12
TTITLE12=b13
TTITLE13=b14
TTITLE14=b15
TTITLE15=b16
TTITLE16=b17
TTITLE17=b18
TTITLE18=b19
EXTD=Goran bregovich. Best of soundtracks
EXTT0=
EXTT1=
EXTT2=
EXTT3=
EXTT4=
EXTT5=
EXTT6=
EXTT7=
EXTT8=
EXTT9=
EXTT10=
EXTT11=
EXTT12=
EXTT13=
EXTT14=
EXTT15=
EXTT16=
EXTT17=
EXTT18=
PLAYORDER=
